Coordinates
version=1
nRows=22
nColumns=24
inDegrees=yes

Units are S.I. units (second, meters, Newtons, ...)
Angles are in degrees.

endheader
time	pelvis_tilt	pelvis_list	pelvis_rotation	pelvis_tx	pelvis_ty	pelvis_tz	hip_flexion_r	hip_adduction_r	hip_rotation_r	knee_angle_r	ankle_angle_r	subtalar_angle_r	mtp_angle_r	hip_flexion_l	hip_adduction_l	hip_rotation_l	knee_angle_l	ankle_angle_l	subtalar_angle_l	mtp_angle_l	lumbar_extension	lumbar_bending	lumbar_rotation
      6.45500000	     13.91927141	     -7.40400453	     16.22338955	      2.50650149	      0.93470552	     -0.21851183	     -7.78811285	     14.32328720	     -6.66233475	    -10.47869397	     20.80396575	     -4.88566088	      0.00000000	      4.18566871	    -10.48236499	     12.43214218	    -69.20450169	     11.59836822	     -1.17654351	      0.00000000	    -25.39359336	     11.67167225	    -10.81095849
      6.46000000	     13.88156385	     -7.15011092	     15.86776808	      2.51261193	      0.93543479	     -0.21788334	     -8.47391504	     14.15109814	     -6.35443911	    -10.04627972	     20.89769991	     -4.79445308	      0.00000000	      4.79394978	     -9.90449809	     12.15574136	    -68.87388300	     12.21715164	     -1.20989671	      0.00000000	    -25.49150134	     11.25854787	    -10.37198100
      6.46500000	     13.82451465	     -6.90783693	     15.51278601	      2.51865750	      0.93609098	     -0.21727778	     -9.12147598	     13.97272824	     -6.09374904	     -9.63006111	     20.99802392	     -4.65914534	      0.00000000	      5.41906244	     -9.33880140	     11.87534343	    -68.46300386	     12.82267200	     -1.21064051	      0.00000000	    -25.57207162	     10.85811738	     -9.93931190
      6.47000000	     13.75469070	     -6.67368307	     15.15227357	      2.52464489	      0.93667951	     -0.21667675	     -9.73890114	     13.78864732	     -5.85866447	     -9.23170268	     21.10749011	     -4.50126674	      0.00000000	      6.04817902	     -8.78775041	     11.58239828	    -67.96822187	     13.42290388	     -1.17423329	      0.00000000	    -25.64405742	     10.46445893	     -9.50765641
      6.47500000	     13.69590670	     -6.44994992	     14.76685635	      2.53066724	      0.93725171	     -0.21605447	    -10.37396048	     13.60748929	     -5.61743373	     -8.81944373	     21.19334062	     -4.33397270	      0.00000000	      6.63893990	     -8.26937404	     11.25157275	    -67.37366771	     13.98529003	     -1.10172793	      0.00000000	    -25.71846616	     10.07354473	     -9.04434695
      6.48000000	     13.64631380	     -6.23428847	     14.37666900	      2.53668795	      0.93779337	     -0.21543596	    -11.01542025	     13.42814872	     -5.38975572	     -8.40461632	     21.26780050	     -4.15734305	      0.00000000	      7.20170849	     -7.77796874	     10.90394284	    -66.68721793	     14.51314008	     -0.99199924	      0.00000000	    -25.79862895	      9.69122100	     -8.57652468
      6.48500000	     13.59770287	     -6.02764565	     13.98149110	      2.54267692	      0.93828678	     -0.21481490	    -11.64757242	     13.24919330	     -5.18599254	     -7.99606198	     21.33706928	     -3.96693705	      0.00000000	      7.74676446	     -7.30760649	     10.55170941	    -65.91382251	     15.02721870	     -0.85634882	      0.00000000	    -25.88068012	      9.31850557	     -8.10812651
      6.49000000	     13.53084965	     -5.83665263	     13.59662090	      2.54860894	      0.93869363	     -0.21423706	    -12.23732937	     13.07268191	     -5.01544442	     -7.61508098	     21.42819755	     -3.74357608	      0.00000000	      8.30262667	     -6.85470261	     10.21187765	    -65.06039742	     15.54066146	     -0.70333627	      0.00000000	    -25.94404093	      8.97049566	     -7.65763425
      6.49500000	     13.48507844	     -5.65546501	     13.18754461	      2.55456357	      0.93909770	     -0.21362947	    -12.85258044	     12.90043584	     -4.83202738	     -7.22491758	     21.48810244	     -3.52333458	      0.00000000	      8.80636723	     -6.43992954	      9.83735064	    -64.10961209	     16.00075049	     -0.52753070	      0.00000000	    -26.02666700	      8.62449839	     -7.17276101
      6.50000000	     13.47183004	     -5.47469711	     12.77909338	      2.56053013	      0.93948851	     -0.21299083	    -13.50064680	     12.73376919	     -4.65910435	     -6.83186058	     21.54378219	     -3.33947879	      0.00000000	      9.24882908	     -6.05596133	      9.44726053	    -63.06563762	     16.43964850	     -0.32465351	      0.00000000	    -26.14065540	      8.27712129	     -6.68366654
      6.50500000	     13.41129502	     -5.32547006	     12.38224432	      2.56643566	      0.93976997	     -0.21244067	    -14.07119777	     12.57467153	     -4.52368592	     -6.47190564	     21.60338490	     -3.06392041	      0.00000000	      9.73453971	     -5.68797387	      9.09574455	    -61.94883394	     16.86160397	     -0.12384280	      0.00000000	    -26.20453900	      7.97480864	     -6.21812070
      6.51000000	     13.35727219	     -5.18625494	     11.98760923	      2.57234153	      0.93999224	     -0.21187852	    -14.63609747	     12.42446750	     -4.39091858	     -6.12836633	     21.68914849	     -2.82595924	      0.00000000	     10.18756549	     -5.34885185	      8.74459655	    -60.74523842	     17.29063249	      0.10253442	      0.00000000	    -26.26919955	      7.68473993	     -5.76855823
      6.51500000	     13.35835778	     -5.04678321	     11.55828502	      2.57823773	      0.94027695	     -0.21128935	    -15.26349949	     12.26872531	     -4.22365376	     -5.77924780	     21.70757971	     -2.59552312	      0.00000000	     10.54256385	     -5.04499312	      8.34675807	    -59.43898137	     17.62986553	      0.32854157	      0.00000000	    -26.40576500	      7.38497181	     -5.23988978
      6.52000000	     13.31947348	     -4.93474967	     11.16590987	      2.58413501	      0.94042113	     -0.21074586	    -15.82448065	     12.13572826	     -4.11123220	     -5.45901853	     21.78703998	     -2.34643885	      0.00000000	     10.92746930	     -4.76594092	      7.99424229	    -58.06294706	     18.00569861	      0.56619672	      0.00000000	    -26.48333055	      7.12832622	     -4.79155072
      6.52500000	     13.33359097	     -4.81860544	     10.74579575	      2.58999670	      0.94062352	     -0.21020806	    -16.43835013	     11.99071300	     -3.94740513	     -5.14789258	     21.80146234	     -2.12447170	      0.00000000	     11.21367104	     -4.50460216	      7.62976960	    -56.58629164	     18.30704366	      0.81652139	      0.00000000	    -26.63606678	      6.86619420	     -4.27529961
      6.53000000	     13.33389245	     -4.72575334	     10.34269478	      2.59587390	      0.94074210	     -0.20968233	    -17.02177810	     11.86517738	     -3.81358958	     -4.85770808	     21.84725134	     -1.88694009	      0.00000000	     11.49040653	     -4.27718743	      7.28068574	    -55.03127251	     18.60648707	      1.06527069	      0.00000000	    -26.76029607	      6.62803272	     -3.79298337
      6.53500000	     13.33448481	     -4.64925919	      9.93761004	      2.60174417	      0.94081491	     -0.20917850	    -17.59182596	     11.74690591	     -3.67723858	     -4.58918974	     21.89330771	     -1.65495730	      0.00000000	     11.73535862	     -4.07569380	      6.94280516	    -53.39533214	     18.87428930	      1.31998001	      0.00000000	    -26.88789077	      6.41605559	     -3.31055112
      6.54000000	     13.34662833	     -4.58392425	      9.53269821	      2.60760789	      0.94086002	     -0.20869343	    -18.16028526	     11.63270195	     -3.52616229	     -4.34587997	     21.93522600	     -1.42691095	      0.00000000	     11.93200223	     -3.89706876	      6.61541314	    -51.67366900	     19.11724360	      1.57835212	      0.00000000	    -27.02970124	      6.21654999	     -2.82627564
      6.54500000	     13.43535070	     -4.50577755	      9.13962521	      2.61348945	      0.94094516	     -0.20820576	    -18.81364588	     11.51683261	     -3.34458497	     -4.09861156	     21.95640765	     -1.28442229	      0.00000000	     11.99961853	     -3.73085124	      6.29892696	    -49.85818027	     19.33723756	      1.85490753	      0.00000000	    -27.25768234	      6.01333803	     -2.35951712
      6.55000000	     13.47553913	     -4.46703572	      8.74082016	      2.61937363	      0.94093141	     -0.20775072	    -19.39057360	     11.41835056	     -3.17943832	     -3.89399686	     21.99680869	     -1.07220269	      0.00000000	     12.09173510	     -3.60240368	      5.99880991	    -47.97619341	     19.50527192	      2.11451675	      0.00000000	    -27.42728409	      5.84798964	     -1.87936117
      6.55500000	     13.47826357	     -4.46687642	      8.34064635	      2.62526123	      0.94082843	     -0.20733644	    -19.90573063	     11.34013915	     -3.02740650	     -3.72636298	     22.05204175	     -0.80597469	      0.00000000	     12.19572771	     -3.51228356	      5.71851952	    -46.03157234	     19.61303604	      2.35032703	      0.00000000	    -27.55093026	      5.72053977	     -1.36565420
      6.56000000	     13.51673891	     -4.47064084	      7.93425542	      2.63117810	      0.94071837	     -0.20690599	    -20.45048645	     11.26214494	     -2.83060746	     -3.58406399	     22.10402608	     -0.58773253	      0.00000000	     12.21121632	     -3.44597982	      5.43584607	    -44.00318490	     19.72380481	      2.59522466	      0.00000000	    -27.71522796	      5.59723996	     -0.89692804
